<svg xmlns="http://www.w3.org/2000/svg" width="512" height="512" viewBox="0 0 512 512" role="img" aria-label="全球实时行情 WorldRealtime icon">
  <title>WorldRealtime icon</title>
  <defs>
    <linearGradient id="icBg" x1="0" y1="0" x2="1" y2="1">
      <stop offset="0" stop-color="#7E1422"/>
      <stop offset="0.55" stop-color="#5A0C16"/>
      <stop offset="1" stop-color="#3A060E"/>
    </linearGradient>
    <radialGradient id="icGlow" cx="0.3" cy="0.24" r="0.85">
      <stop offset="0" stop-color="#9A1E2D" stop-opacity="0.85"/>
      <stop offset="1" stop-color="#9A1E2D" stop-opacity="0"/>
    </radialGradient>
    <linearGradient id="icGold" x1="0" y1="0" x2="0" y2="1">
      <stop offset="0" stop-color="#FBE6AE"/>
      <stop offset="1" stop-color="#D7A63C"/>
    </linearGradient>
  </defs>

  <rect x="0" y="0" width="512" height="512" fill="url(#icBg)"/>
  <rect x="0" y="0" width="512" height="512" fill="url(#icGlow)"/>

  <g fill="none" stroke="url(#icGold)" stroke-linecap="round">
    <circle cx="256" cy="256" r="135" stroke-width="9"/>
    <ellipse cx="256" cy="256" rx="52" ry="135" stroke-width="5.2" stroke-opacity="0.6"/>
    <ellipse cx="256" cy="256" rx="104" ry="135" stroke-width="4.2" stroke-opacity="0.34"/>
    <line x1="126" y1="256" x2="386" y2="256" stroke-width="5.2" stroke-opacity="0.55"/>
    <line x1="139" y1="188" x2="373" y2="188" stroke-width="4.2" stroke-opacity="0.45"/>
    <line x1="139" y1="324" x2="373" y2="324" stroke-width="4.2" stroke-opacity="0.45"/>
  </g>

  <polyline points="157,308 214,266 266,287 324,214 370,178" fill="none" stroke="#FFE9B5" stroke-width="11" stroke-linecap="round" stroke-linejoin="round"/>
  <path d="M370,178 L342,181 M370,178 L368,207" fill="none" stroke="#FFE9B5" stroke-width="11" stroke-linecap="round" stroke-linejoin="round"/>
  <g fill="#FFF3D2">
    <circle cx="157" cy="308" r="7.6"/>
    <circle cx="214" cy="266" r="7.6"/>
    <circle cx="266" cy="287" r="7.6"/>
    <circle cx="324" cy="214" r="7.6"/>
  </g>
</svg>
